# xmcd CD database file
#
# Track frame offsets:
#	180
#	13168
#	26110
#	37645
#	47657
#	56137
#	66538
#	78661
#	91132
#	105353
#	117084
#	124977
#	134719
#	150693
#	158901
#	170278
#	184745
#	200933
#	214552
#
# Disc length: 3109 seconds
#
# Revision: 0
# Processed by: cddbd v1.5.2PL0 Copyright (c) Steve Scherf et al.
# Submitted via: CDex 1.51
#
DISCID=0c0c2313
DTITLE=Jacek Spruch - Guitar Sniper
DYEAR=1997
DGENRE=Blues
TTITLE0=Guitar Rag
TTITLE1=Grandpa
TTITLE2=Great Girls
TTITLE3=Hot Dog Boogie
TTITLE4=Magdalena
TTITLE5=Vestapol
TTITLE6=Louis Collins
TTITLE7=John Henry
TTITLE8=Police Dog Blues
TTITLE9=PON-Rag
TTITLE10=Pistol Slapper Blues
TTITLE11=Buck Dancer
TTITLE12=Candy Man
TTITLE13=Rubber Duck
TTITLE14=Cocaine Done Killed My Baby
TTITLE15=Aries
TTITLE16=Deep River Blues
TTITLE17=Pink Slide Blues
TTITLE18=Jim Beam and Jack Daniels
EXTD=YEAR: 1997
EXTT0=
EXTT1=
EXTT2=
EXTT3=
EXTT4=
EXTT5=
EXTT6=
EXTT7=
EXTT8=
EXTT9=
EXTT10=
EXTT11=
EXTT12=
EXTT13=
EXTT14=
EXTT15=
EXTT16=
EXTT17=
EXTT18=
PLAYORDER=
